<svg width="124" height="29" viewBox="0 0 124 29" fill="none" xmlns="http://www.w3.org/2000/svg">
<path fill-rule="evenodd" clip-rule="evenodd" d="M112.631 7.06063C113.006 7.06063 113.263 6.98247 113.263 6.53583C113.263 6.0892 112.77 6.12828 112.435 6.12828H111.685V7.06063H112.631ZM113.834 8.95887H113.006C112.748 8.48987 112.491 8.01527 112.256 7.54637H111.685V8.95887H110.957V5.5979H112.597C113.487 5.60348 113.94 5.86588 113.94 6.64749C113.94 7.28395 113.604 7.50727 113.011 7.54637C113.28 8.01527 113.554 8.48987 113.834 8.95887ZM114.841 7.28395C114.841 5.73747 113.756 4.60971 112.25 4.60971C110.7 4.60971 109.636 5.73747 109.636 7.28395C109.636 8.83047 110.7 9.95817 112.25 9.95817C113.761 9.95817 114.841 8.83047 114.841 7.28395ZM109.116 7.28395C109.116 5.5644 110.498 4.14632 112.256 4.14632C114.013 4.14632 115.435 5.5644 115.435 7.28395C115.435 8.99797 114.013 10.416 112.256 10.416C110.498 10.416 109.116 8.99797 109.116 7.28395Z" fill="#AB1F20"/>
<path fill-rule="evenodd" clip-rule="evenodd" d="M112 26.3919C110.929 27.9667 109.379 29 108.081 29H2.04675C0.171758 29 -0.547539 26.838 0.448643 24.1918L8.17432 6.12569C8.83344 4.37932 10.0824 2.83886 11.3946 2C10.886 2.67491 10.4496 3.44132 10.1457 4.25731L2.41693 22.3196C1.42075 24.962 2.14306 27.124 4.01504 27.124H110.05C110.685 27.1278 111.329 26.8227 112 26.3919Z" fill="#AB1F20"/>
<path fill-rule="evenodd" clip-rule="evenodd" d="M14.9535 0H121.935C123.827 0 124.553 2.08191 123.547 4.63013L115.752 22.0271C115.091 23.7088 113.827 25.1922 112.504 26C113.017 25.3501 113.457 24.612 113.764 23.8263L121.558 6.42931C122.56 3.88476 121.835 1.79918 119.946 1.79918H12.9677C12.327 1.79918 11.6802 2.10027 11 2.51518C11.9929 0.914278 13.6448 0 14.9535 0Z" fill="black"/>
<path fill-rule="evenodd" clip-rule="evenodd" d="M94.6157 4.14632H98.1157L100.116 7.64632L101.616 4.14632H105.116L97.6157 25.1463L93.6157 25.1407L98.6157 12.1463L96.6157 8.64632L90.6157 25.1463H86.6157L94.6157 4.14632Z" fill="#AB1F20"/>
<path fill-rule="evenodd" clip-rule="evenodd" d="M59.6157 4.14632H70.6157L63.2227 25.1296L52.1157 25.1463L59.6157 4.14632ZM56.6157 21.6463H60.6157L65.6157 7.14632H62.1157L56.6157 21.6463Z" fill="#AB1F20"/>
<path d="M83.5893 25.1463H79.6157L87.6157 4.14632H91.5838L83.5893 25.1463Z" fill="#AB1F20"/>
<path fill-rule="evenodd" clip-rule="evenodd" d="M73.1157 4.14632H84.6157L76.6157 25.1463H65.6157L67.1157 21.6463H68.1157L73.6157 7.14632H72.1157L73.1157 4.14632ZM71.6157 21.6463L77.1157 7.14632H80.1157L74.6157 21.6463H71.6157Z" fill="#AB1F20"/>
<path d="M26.8114 7.14632C19.9635 8.66806 16.7424 10.3237 13.1157 14.755H22.2462C22.2462 10.7685 26.8114 7.14632 26.8114 7.14632Z" fill="black"/>
<path d="M26.8114 22.3637C19.9635 20.842 16.7424 19.1863 13.1157 14.755H22.2462C22.2462 18.7415 26.8114 22.3637 26.8114 22.3637Z" fill="black"/>
<path d="M34.4201 7.14632C41.2679 8.66806 44.489 10.3237 48.1157 14.755H38.9853C38.9853 10.7685 34.4201 7.14632 34.4201 7.14632Z" fill="black"/>
<path d="M34.4201 22.3637C41.2679 20.842 44.489 19.1863 48.1157 14.755H38.9853C38.9853 18.7415 34.4201 22.3637 34.4201 22.3637Z" fill="black"/>
<circle cx="30.6157" cy="14.6463" r="2.5" fill="#AB1F20"/>
</svg>
